<!DOCTYPE svg PUBLIC "-//W3C//DTD SVG 1.1//EN" "http://www.w3.org/Graphics/SVG/1.1/DTD/svg11.dtd">
<!-- Uploaded to: SVG Repo, www.svgrepo.com, Transformed by: SVG Repo Mixer Tools -->
<svg version="1.1" id="Layer_1" xmlns="http://www.w3.org/2000/svg" xmlns:xlink="http://www.w3.org/1999/xlink" viewBox="0 0 512 512" xml:space="preserve" width="800px" height="800px" fill="#000000">
<g id="SVGRepo_bgCarrier" stroke-width="0"/>
<g id="SVGRepo_tracerCarrier" stroke-linecap="round" stroke-linejoin="round"/>
<g id="SVGRepo_iconCarrier"> <path style="fill:#EC0000;" d="M308.067,501.801c8.183,0,12.726-9.596,7.428-15.834c-14.312-16.853-35.653-27.548-59.496-27.548 s-45.183,10.695-59.496,27.548c-5.296,6.238-0.755,15.834,7.428,15.834H308.067z"/> <g> <path style="fill:#00A03C;" d="M256,399.049h-28.779c-42.989,0-77.837-34.849-77.837-77.837v-28.779h28.779 c42.989,0,77.837,34.849,77.837,77.837V399.049z"/> <path style="fill:#00A03C;" d="M256,399.049h28.779c42.989,0,77.837-34.849,77.837-77.837v-28.779h-28.779 c-42.989,0-77.837,34.849-77.837,77.837V399.049L256,399.049z"/> </g> <rect x="172.54" y="107.112" style="fill:#EC0000;" width="166.92" height="32.137"/> <polygon style="fill:#E8E8E8;" points="327.469,139.252 184.531,139.252 213.31,251.012 298.69,251.012 "/> <g> <path style="fill:#E8E8E8;" d="M278.156,23.674v83.44h26.95v-83.44c0-7.442-6.033-13.475-13.475-13.475l0,0 C284.189,10.199,278.156,16.232,278.156,23.674z"/> <path style="fill:#E8E8E8;" d="M206.894,23.674v83.44h26.95v-83.44c0-7.442-6.033-13.475-13.475-13.475l0,0 C212.927,10.199,206.894,16.232,206.894,23.674z"/> </g> <g> <path style="fill:#5E282D;" d="M362.616,282.234h-28.778c-27.158,0-51.476,12.367-67.638,31.758v-52.781h32.49 c4.654,0,8.716-3.15,9.877-7.656l26.808-104.104h4.086c5.633,0,10.199-4.567,10.199-10.199v-32.138 c0-5.632-4.566-10.199-10.199-10.199h-24.155V23.674C315.305,10.62,304.685,0,291.631,0c-13.054,0-23.674,10.62-23.674,23.674 v73.241h-23.913V23.674C244.044,10.62,233.423,0,220.369,0s-23.674,10.62-23.674,23.674v73.241H172.54 c-5.633,0-10.199,4.567-10.199,10.199v32.138c0,5.632,4.566,10.199,10.199,10.199h4.086l26.808,104.104 c1.161,4.506,5.224,7.656,9.877,7.656h32.491v52.781c-16.162-19.391-40.481-31.758-67.638-31.758h-28.778 c-5.633,0-10.199,4.567-10.199,10.199v28.778c0,48.544,39.493,88.036,88.036,88.036h18.579v39.567 c-22.09,2.561-42.484,13.374-57.071,30.55c-5.033,5.928-6.126,14.005-2.851,21.082c3.297,7.126,10.215,11.554,18.054,11.554 h104.134c7.838,0,14.756-4.427,18.054-11.554c3.274-7.076,2.183-15.154-2.851-21.081c-14.587-17.176-34.98-27.991-57.071-30.551 v-39.567h18.579c48.544,0,88.036-39.493,88.036-88.036v-28.778C372.816,286.801,368.249,282.234,362.616,282.234z M288.355,23.674 c0-1.806,1.47-3.276,3.276-3.276s3.276,1.469,3.276,3.276v73.241h-6.552V23.674z M217.093,23.674c0-1.806,1.47-3.276,3.276-3.276 c1.806,0,3.276,1.469,3.276,3.276v73.241h-6.552L217.093,23.674L217.093,23.674z M329.261,117.313v11.739H182.739v-11.739H329.261z M197.69,149.451h116.621l-23.526,91.361h-69.568L197.69,149.451z M159.583,321.212v-18.579h18.579 c37.295,0,67.638,30.343,67.638,67.638v4.154l-55.598-55.598c-3.983-3.982-10.441-3.982-14.425,0 c-3.983,3.983-3.983,10.441,0,14.425l55.598,55.598h-4.155C189.926,388.85,159.583,358.507,159.583,321.212z M306.884,491.602 H205.116c12.896-14.624,31.367-22.983,50.884-22.983C275.516,468.619,293.987,476.978,306.884,491.602z M352.417,321.212 c0,37.295-30.343,67.638-67.638,67.638h-4.155l27.465-27.465c3.983-3.983,3.983-10.441,0-14.425 c-3.983-3.982-10.441-3.982-14.425,0l-27.465,27.465v-4.154c0-37.295,30.343-67.638,67.638-67.638h18.579v18.579H352.417z"/> <path style="fill:#5E282D;" d="M321.797,318.828l-1.615,1.615c-3.983,3.983-3.983,10.441,0,14.425 c1.992,1.991,4.602,2.987,7.212,2.987c2.61,0,5.221-0.996,7.212-2.987l1.615-1.615c3.983-3.983,3.983-10.441,0-14.425 C332.238,314.845,325.78,314.845,321.797,318.828z"/> </g> </g>
</svg>